<svg width="357" height="111" viewBox="0 0 357 111" fill="none" xmlns="http://www.w3.org/2000/svg">
<g clip-path="url(#clip0_2196_31899)">
<path d="M177.606 7.61719L165.513 48.4514H156.868L150.091 23.3313L143.022 48.4514H134.375L122.398 7.61719H132.622L138.813 32.6788L145.824 7.61719H154.471L160.898 32.7372L167.383 7.61719H177.606Z" fill="#FFFBF3"/>
<path d="M234.599 7.61719V48.4514H225.896L208.779 23.2146L209.304 48.4514H198.789V7.61719H207.493L224.434 30.1085L224.084 7.61719H234.599Z" fill="#FFFBF3"/>
<path d="M193.154 48.4185H182.648V7.61719H192.571L193.154 48.4167V48.4185Z" fill="#FFFBF3"/>
<path d="M147.282 83.84C154.702 83.84 159.025 89.331 159.025 95.4077C159.025 105.923 149.619 110.246 140.155 110.246C134.255 110.246 128.237 108.551 124.558 105.572L126.019 95.5244C128.823 98.8537 136.008 101.191 141.675 101.191C145.998 101.191 149.444 99.8461 149.444 96.5752C149.444 94.2967 147.808 92.7187 144.303 92.7187C141.675 92.7187 139.279 93.6545 135.715 93.6545C128.471 93.6545 124.266 89.8583 124.266 82.7309C124.266 72.5661 132.794 68.3594 141.908 68.3594C146.582 68.3594 151.372 69.4685 155.344 71.3968L154.585 81.1529C151.197 78.816 145.471 77.1797 140.914 77.1797C136.941 77.1797 133.845 78.4074 133.845 81.3864C133.845 83.7233 135.773 85.0678 138.927 85.0678C142.081 85.0678 143.718 83.84 147.222 83.84H147.28H147.282Z" fill="#FFFBF3"/>
<path d="M184.38 101.061C187.651 101.061 191.508 100.069 195.656 97.9073L196.473 107.722C192.792 109.358 188.354 110.292 183.972 110.292C173.282 110.292 162.531 104.684 162.531 89.6124V89.3789C162.531 74.4236 174.04 68.1719 184.672 68.1719C188.996 68.1719 193.201 69.2226 196.473 71.2676L195.656 81.0822C192.15 78.2199 188.412 76.9922 184.966 76.9922C178.13 76.9922 172.464 81.9578 172.464 89.4938C172.464 96.3877 177.196 101.061 184.382 101.061H184.38Z" fill="#FFFBF3"/>
<path d="M226.556 109.717V92.4249H212.36L212.593 109.717H202.078V68.8828H212.009L212.243 84.6553H226.556V68.8828H236.487L237.071 109.717H226.556Z" fill="#FFFBF3"/>
<path d="M283.4 88.7364C283.4 104.042 272.651 110.41 262.311 110.002C251.971 110.41 241.281 104.044 241.281 88.7364C241.281 75.3008 251.504 68.582 262.311 68.582C273.118 68.582 283.4 75.3008 283.4 88.7364ZM273.468 88.7364C273.468 82.4865 268.678 77.8712 262.309 77.8712C255.941 77.8712 251.211 82.4865 251.211 88.7364C251.211 97.1499 256.176 100.654 262.309 100.654C268.443 100.654 273.468 97.1499 273.468 88.7364Z" fill="#FFFBF3"/>
<path d="M329.142 88.7364C329.142 104.042 318.393 110.41 308.053 110.002C297.714 110.41 287.023 104.044 287.023 88.7364C287.023 75.3008 297.247 68.582 308.053 68.582C318.86 68.582 329.142 75.3008 329.142 88.7364ZM319.211 88.7364C319.211 82.4865 314.42 77.8712 308.052 77.8712C301.683 77.8712 296.953 82.4865 296.953 88.7364C296.953 97.1499 301.919 100.654 308.052 100.654C314.185 100.654 319.211 97.1499 319.211 88.7364Z" fill="#FFFBF3"/>
<path d="M356.996 100.37V109.717H333.805V68.8828H343.736V100.371H356.996V100.37Z" fill="#FFFBF3"/>
<path d="M56.0984 21.8218C62.1243 21.8218 67.0093 16.9368 67.0093 10.9109C67.0093 4.88497 62.1243 0 56.0984 0C50.0725 0 45.1875 4.88497 45.1875 10.9109C45.1875 16.9368 50.0725 21.8218 56.0984 21.8218Z" fill="#FFFBF3"/>
<path d="M49.1261 28.919C42.878 19.0936 30.7175 9.27361 10.1818 7.61719C10.0979 15.9632 12.5406 23.864 14.6129 29.667C15.1456 29.6524 15.2642 29.6488 15.7914 29.6488C26.1295 29.6488 34.4426 32.3195 41.0938 36.3055C42.9072 32.8594 45.7986 30.3803 49.1279 28.9209L49.1261 28.919Z" fill="#FFFBF3"/>
<path d="M63.0956 28.9537C66.4066 30.4277 69.278 32.9142 71.0731 36.362C77.7298 32.3432 86.0356 29.6451 96.3463 29.6451C96.9082 29.6451 97.4774 29.6615 98.0465 29.6779C100.119 23.875 102.067 15.9632 101.983 7.61719C81.4239 9.27361 69.3382 19.1137 63.0938 28.9537H63.0956Z" fill="#FFFBF3"/>
<path d="M44.9717 44.1187C44.5594 58.534 56.1052 67.7867 56.1052 67.7867C56.1052 67.7867 67.6509 58.534 67.2386 44.1187C66.8336 29.9917 45.3767 29.9917 44.9717 44.1187Z" fill="#FFFBF3"/>
<path d="M39.0501 43.9563C39.0665 43.3908 39.1176 42.8471 39.1778 42.3108C30.2717 36.4713 17.6369 33.2917 0 38.146C11.7628 71.7124 37.5086 72.661 50.5338 70.72C46.7612 67.0076 38.6651 57.4321 39.0501 43.9581V43.9563Z" fill="#FFFBF3"/>
<path d="M73.0357 42.3126C73.0959 42.8489 73.147 43.3925 73.1634 43.9562C73.5483 57.432 65.4504 67.0057 61.6797 70.7181C74.7049 72.6609 100.451 71.7123 112.215 38.1459C94.5765 33.2916 81.9417 36.4713 73.0357 42.3126Z" fill="#FFFBF3"/>
<path d="M74.5559 94.0307C68.0433 89.6561 62.0853 82.339 60.168 79.8672C57.9917 76.9283 56.0963 75.3047 56.0963 75.3047C56.0963 75.3047 54.1917 76.9356 52.0099 79.8854C50.0762 82.3755 44.1328 89.6671 37.6366 94.0307C32.7385 97.3198 29.6719 102.96 29.6719 109.132V109.57H46.9804C50.1948 101.603 56.0963 96.8711 56.0963 96.8711C56.0963 96.8711 61.9995 101.603 65.2121 109.57H82.5206V109.132C82.5206 102.96 79.4522 97.3216 74.5559 94.0307Z" fill="#FFFBF3"/>
</g>
<defs>
<clipPath id="clip0_2196_31899">
<rect width="357" height="110.309" fill="white"/>
</clipPath>
</defs>
</svg>
